<mxfile host="app.diagrams.net" agent="Mozilla/5.0 (Windows NT 10.0; Win64; x64) AppleWebKit/537.36 (KHTML, like Gecko) Chrome/129.0.0.0 Safari/537.36" version="24.7.17">
  <diagram name="1 oldal" id="oeFlDBj4v-XqFrBoMQ2P">
    <mxGraphModel dx="1834" dy="1236" grid="0" gridSize="10" guides="1" tooltips="1" connect="1" arrows="1" fold="1" page="0" pageScale="1" pageWidth="827" pageHeight="1169" math="0" shadow="0">
      <root>
        <mxCell id="0" />
        <mxCell id="1" parent="0" />
        <mxCell id="IQn74y5c-lK3esVrfXZ4-1" value="" style="ellipse;whiteSpace=wrap;html=1;" vertex="1" parent="1">
          <mxGeometry x="127" y="-149" width="149" height="61" as="geometry" />
        </mxCell>
        <mxCell id="IQn74y5c-lK3esVrfXZ4-2" value="orarend" style="text;strokeColor=none;fillColor=none;html=1;align=center;verticalAlign=middle;whiteSpace=wrap;rounded=0;fontSize=16;" vertex="1" parent="1">
          <mxGeometry x="171.5" y="-132.5" width="60" height="30" as="geometry" />
        </mxCell>
        <mxCell id="IQn74y5c-lK3esVrfXZ4-4" value="" style="ellipse;whiteSpace=wrap;html=1;" vertex="1" parent="1">
          <mxGeometry x="127" y="-24" width="149" height="63" as="geometry" />
        </mxCell>
        <mxCell id="IQn74y5c-lK3esVrfXZ4-5" value="" style="ellipse;whiteSpace=wrap;html=1;fillColor=none;" vertex="1" parent="1">
          <mxGeometry x="121" y="-31" width="161" height="77" as="geometry" />
        </mxCell>
        <mxCell id="IQn74y5c-lK3esVrfXZ4-6" value="" style="ellipse;whiteSpace=wrap;html=1;" vertex="1" parent="1">
          <mxGeometry x="135" y="143" width="149" height="63" as="geometry" />
        </mxCell>
        <mxCell id="IQn74y5c-lK3esVrfXZ4-9" value="ora" style="text;strokeColor=none;fillColor=none;html=1;align=center;verticalAlign=middle;whiteSpace=wrap;rounded=0;fontSize=16;" vertex="1" parent="1">
          <mxGeometry x="171.5" y="-7.5" width="60" height="30" as="geometry" />
        </mxCell>
        <mxCell id="IQn74y5c-lK3esVrfXZ4-10" style="edgeStyle=none;curved=1;rounded=0;orthogonalLoop=1;jettySize=auto;html=1;exitX=1;exitY=0;exitDx=0;exitDy=0;fontSize=12;startSize=8;endSize=8;" edge="1" parent="1" source="IQn74y5c-lK3esVrfXZ4-5" target="IQn74y5c-lK3esVrfXZ4-5">
          <mxGeometry relative="1" as="geometry" />
        </mxCell>
        <mxCell id="IQn74y5c-lK3esVrfXZ4-13" value="" style="html=1;whiteSpace=wrap;aspect=fixed;shape=isoRectangle;" vertex="1" parent="1">
          <mxGeometry x="-145" y="-88" width="150" height="90" as="geometry" />
        </mxCell>
        <mxCell id="IQn74y5c-lK3esVrfXZ4-14" value="" style="html=1;whiteSpace=wrap;aspect=fixed;shape=isoRectangle;" vertex="1" parent="1">
          <mxGeometry x="-145" y="22.5" width="150" height="90" as="geometry" />
        </mxCell>
        <mxCell id="IQn74y5c-lK3esVrfXZ4-17" value="" style="endArrow=none;html=1;rounded=0;fontSize=12;startSize=8;endSize=8;curved=1;exitX=0.993;exitY=0.494;exitDx=0;exitDy=0;exitPerimeter=0;" edge="1" parent="1" source="IQn74y5c-lK3esVrfXZ4-14" target="IQn74y5c-lK3esVrfXZ4-5">
          <mxGeometry width="50" height="50" relative="1" as="geometry">
            <mxPoint x="42" y="96" as="sourcePoint" />
            <mxPoint x="92" y="46" as="targetPoint" />
          </mxGeometry>
        </mxCell>
        <mxCell id="IQn74y5c-lK3esVrfXZ4-18" value="" style="endArrow=none;html=1;rounded=0;fontSize=12;startSize=8;endSize=8;curved=1;exitX=1;exitY=0.522;exitDx=0;exitDy=0;exitPerimeter=0;" edge="1" parent="1" source="IQn74y5c-lK3esVrfXZ4-13" target="IQn74y5c-lK3esVrfXZ4-5">
          <mxGeometry width="50" height="50" relative="1" as="geometry">
            <mxPoint x="14" y="77" as="sourcePoint" />
            <mxPoint x="143" y="38" as="targetPoint" />
          </mxGeometry>
        </mxCell>
        <mxCell id="IQn74y5c-lK3esVrfXZ4-19" value="&lt;u&gt;id&lt;/u&gt;" style="text;strokeColor=none;fillColor=none;html=1;align=center;verticalAlign=middle;whiteSpace=wrap;rounded=0;fontSize=16;" vertex="1" parent="1">
          <mxGeometry x="-100" y="-58" width="60" height="30" as="geometry" />
        </mxCell>
        <mxCell id="IQn74y5c-lK3esVrfXZ4-20" value="type" style="text;strokeColor=none;fillColor=none;html=1;align=center;verticalAlign=middle;whiteSpace=wrap;rounded=0;fontSize=16;" vertex="1" parent="1">
          <mxGeometry x="-100" y="52.5" width="60" height="30" as="geometry" />
        </mxCell>
        <mxCell id="IQn74y5c-lK3esVrfXZ4-21" value="" style="ellipse;whiteSpace=wrap;html=1;" vertex="1" parent="1">
          <mxGeometry x="-249" y="143" width="149" height="63" as="geometry" />
        </mxCell>
        <mxCell id="IQn74y5c-lK3esVrfXZ4-22" value="" style="ellipse;whiteSpace=wrap;html=1;" vertex="1" parent="1">
          <mxGeometry x="-53.5" y="143" width="149" height="63" as="geometry" />
        </mxCell>
        <mxCell id="IQn74y5c-lK3esVrfXZ4-23" value="" style="ellipse;whiteSpace=wrap;html=1;" vertex="1" parent="1">
          <mxGeometry x="310" y="143" width="149" height="63" as="geometry" />
        </mxCell>
        <mxCell id="IQn74y5c-lK3esVrfXZ4-24" value="kurzusnev" style="text;strokeColor=none;fillColor=none;html=1;align=center;verticalAlign=middle;whiteSpace=wrap;rounded=0;fontSize=16;" vertex="1" parent="1">
          <mxGeometry x="-204.5" y="159.5" width="60" height="30" as="geometry" />
        </mxCell>
        <mxCell id="IQn74y5c-lK3esVrfXZ4-25" value="idopont" style="text;strokeColor=none;fillColor=none;html=1;align=center;verticalAlign=middle;whiteSpace=wrap;rounded=0;fontSize=16;" vertex="1" parent="1">
          <mxGeometry x="-9" y="159.5" width="60" height="30" as="geometry" />
        </mxCell>
        <mxCell id="IQn74y5c-lK3esVrfXZ4-26" value="helyszin" style="text;strokeColor=none;fillColor=none;html=1;align=center;verticalAlign=middle;whiteSpace=wrap;rounded=0;fontSize=16;" vertex="1" parent="1">
          <mxGeometry x="179.5" y="159.5" width="60" height="30" as="geometry" />
        </mxCell>
        <mxCell id="IQn74y5c-lK3esVrfXZ4-27" value="oktato" style="text;strokeColor=none;fillColor=none;html=1;align=center;verticalAlign=middle;whiteSpace=wrap;rounded=0;fontSize=16;" vertex="1" parent="1">
          <mxGeometry x="354.5" y="159.5" width="60" height="30" as="geometry" />
        </mxCell>
        <mxCell id="IQn74y5c-lK3esVrfXZ4-28" value="" style="ellipse;whiteSpace=wrap;html=1;" vertex="1" parent="1">
          <mxGeometry x="477" y="143" width="149" height="63" as="geometry" />
        </mxCell>
        <mxCell id="IQn74y5c-lK3esVrfXZ4-29" value="szak" style="text;strokeColor=none;fillColor=none;html=1;align=center;verticalAlign=middle;whiteSpace=wrap;rounded=0;fontSize=16;" vertex="1" parent="1">
          <mxGeometry x="522.5" y="159.5" width="60" height="30" as="geometry" />
        </mxCell>
        <mxCell id="IQn74y5c-lK3esVrfXZ4-30" value="" style="endArrow=none;html=1;rounded=0;fontSize=12;startSize=8;endSize=8;curved=1;exitX=1;exitY=0;exitDx=0;exitDy=0;entryX=0.5;entryY=1;entryDx=0;entryDy=0;" edge="1" parent="1" source="IQn74y5c-lK3esVrfXZ4-21" target="IQn74y5c-lK3esVrfXZ4-5">
          <mxGeometry width="50" height="50" relative="1" as="geometry">
            <mxPoint x="14" y="77" as="sourcePoint" />
            <mxPoint x="143" y="38" as="targetPoint" />
          </mxGeometry>
        </mxCell>
        <mxCell id="IQn74y5c-lK3esVrfXZ4-31" value="" style="endArrow=none;html=1;rounded=0;fontSize=12;startSize=8;endSize=8;curved=1;exitX=0.5;exitY=0;exitDx=0;exitDy=0;entryX=0.5;entryY=1;entryDx=0;entryDy=0;" edge="1" parent="1" source="IQn74y5c-lK3esVrfXZ4-22" target="IQn74y5c-lK3esVrfXZ4-5">
          <mxGeometry width="50" height="50" relative="1" as="geometry">
            <mxPoint x="-112" y="162" as="sourcePoint" />
            <mxPoint x="153" y="48" as="targetPoint" />
          </mxGeometry>
        </mxCell>
        <mxCell id="IQn74y5c-lK3esVrfXZ4-32" value="" style="endArrow=none;html=1;rounded=0;fontSize=12;startSize=8;endSize=8;curved=1;exitX=0.5;exitY=0;exitDx=0;exitDy=0;entryX=0.5;entryY=1;entryDx=0;entryDy=0;" edge="1" parent="1" source="IQn74y5c-lK3esVrfXZ4-6" target="IQn74y5c-lK3esVrfXZ4-5">
          <mxGeometry width="50" height="50" relative="1" as="geometry">
            <mxPoint x="196" y="138" as="sourcePoint" />
            <mxPoint x="196" y="45" as="targetPoint" />
          </mxGeometry>
        </mxCell>
        <mxCell id="IQn74y5c-lK3esVrfXZ4-33" value="" style="endArrow=none;html=1;rounded=0;fontSize=12;startSize=8;endSize=8;curved=1;exitX=0.5;exitY=0;exitDx=0;exitDy=0;entryX=0.5;entryY=1;entryDx=0;entryDy=0;" edge="1" parent="1" source="IQn74y5c-lK3esVrfXZ4-23" target="IQn74y5c-lK3esVrfXZ4-5">
          <mxGeometry width="50" height="50" relative="1" as="geometry">
            <mxPoint x="-102" y="172" as="sourcePoint" />
            <mxPoint x="222" y="66" as="targetPoint" />
          </mxGeometry>
        </mxCell>
        <mxCell id="IQn74y5c-lK3esVrfXZ4-34" value="" style="endArrow=none;html=1;rounded=0;fontSize=12;startSize=8;endSize=8;curved=1;exitX=0.436;exitY=0;exitDx=0;exitDy=0;entryX=0.5;entryY=1;entryDx=0;entryDy=0;exitPerimeter=0;" edge="1" parent="1" source="IQn74y5c-lK3esVrfXZ4-28" target="IQn74y5c-lK3esVrfXZ4-5">
          <mxGeometry width="50" height="50" relative="1" as="geometry">
            <mxPoint x="395" y="153" as="sourcePoint" />
            <mxPoint x="212" y="56" as="targetPoint" />
          </mxGeometry>
        </mxCell>
        <mxCell id="IQn74y5c-lK3esVrfXZ4-35" value="" style="endArrow=none;html=1;rounded=0;fontSize=12;startSize=8;endSize=8;curved=1;exitX=0.5;exitY=1;exitDx=0;exitDy=0;entryX=0.5;entryY=0;entryDx=0;entryDy=0;" edge="1" parent="1" source="IQn74y5c-lK3esVrfXZ4-1" target="IQn74y5c-lK3esVrfXZ4-5">
          <mxGeometry width="50" height="50" relative="1" as="geometry">
            <mxPoint x="15" y="-31" as="sourcePoint" />
            <mxPoint x="140" as="targetPoint" />
          </mxGeometry>
        </mxCell>
        <mxCell id="IQn74y5c-lK3esVrfXZ4-36" value="&lt;font style=&quot;font-size: 16px;&quot;&gt;nap&lt;/font&gt;" style="ellipse;whiteSpace=wrap;html=1;" vertex="1" parent="1">
          <mxGeometry x="-216" y="313" width="149" height="63" as="geometry" />
        </mxCell>
        <mxCell id="IQn74y5c-lK3esVrfXZ4-37" value="&lt;font style=&quot;font-size: 16px;&quot;&gt;tol&lt;/font&gt;" style="ellipse;whiteSpace=wrap;html=1;" vertex="1" parent="1">
          <mxGeometry x="-58" y="313" width="149" height="63" as="geometry" />
        </mxCell>
        <mxCell id="IQn74y5c-lK3esVrfXZ4-38" value="&lt;font style=&quot;font-size: 16px;&quot;&gt;ig&lt;/font&gt;" style="ellipse;whiteSpace=wrap;html=1;" vertex="1" parent="1">
          <mxGeometry x="100" y="313" width="149" height="63" as="geometry" />
        </mxCell>
        <mxCell id="IQn74y5c-lK3esVrfXZ4-40" value="" style="endArrow=none;html=1;rounded=0;fontSize=12;startSize=8;endSize=8;curved=1;exitX=0.5;exitY=0;exitDx=0;exitDy=0;entryX=0.5;entryY=1;entryDx=0;entryDy=0;" edge="1" parent="1" source="IQn74y5c-lK3esVrfXZ4-36" target="IQn74y5c-lK3esVrfXZ4-22">
          <mxGeometry width="50" height="50" relative="1" as="geometry">
            <mxPoint x="118" y="215" as="sourcePoint" />
            <mxPoint x="168" y="165" as="targetPoint" />
          </mxGeometry>
        </mxCell>
        <mxCell id="IQn74y5c-lK3esVrfXZ4-41" value="" style="endArrow=none;html=1;rounded=0;fontSize=12;startSize=8;endSize=8;curved=1;exitX=0.5;exitY=0;exitDx=0;exitDy=0;" edge="1" parent="1" source="IQn74y5c-lK3esVrfXZ4-37">
          <mxGeometry width="50" height="50" relative="1" as="geometry">
            <mxPoint x="-131" y="323" as="sourcePoint" />
            <mxPoint x="19" y="204" as="targetPoint" />
          </mxGeometry>
        </mxCell>
        <mxCell id="IQn74y5c-lK3esVrfXZ4-43" value="" style="endArrow=none;html=1;rounded=0;fontSize=12;startSize=8;endSize=8;curved=1;exitX=0.5;exitY=1;exitDx=0;exitDy=0;entryX=0.5;entryY=0;entryDx=0;entryDy=0;" edge="1" parent="1" source="IQn74y5c-lK3esVrfXZ4-22" target="IQn74y5c-lK3esVrfXZ4-38">
          <mxGeometry width="50" height="50" relative="1" as="geometry">
            <mxPoint x="27" y="323" as="sourcePoint" />
            <mxPoint x="29" y="214" as="targetPoint" />
          </mxGeometry>
        </mxCell>
      </root>
    </mxGraphModel>
  </diagram>
</mxfile>
